<svg width="296" height="69" viewBox="0 0 296 69" fill="none" xmlns="http://www.w3.org/2000/svg">
<path d="M0.839489 53.8L9.29119 2.89096H18.5135L14.6605 26.2823H15.282L38.9965 2.89096H50.2571L26.8161 25.7354L41.9794 53.8H30.8928L19.4084 31.9748L12.5973 38.6864L10.0618 53.8H0.839489ZM65.2651 2.89096L56.8134 53.8H47.8148L56.2665 2.89096H65.2651ZM66.0668 53.8L72.4304 15.6182H81.429L75.0653 53.8H66.0668ZM78.2472 10.1495C76.8054 10.1495 75.6122 9.66889 74.6676 8.70772C73.723 7.74654 73.3087 6.59479 73.4247 5.25246C73.5407 3.91013 74.1456 2.75838 75.2393 1.79721C76.3497 0.836033 77.6174 0.355447 79.0426 0.355447C80.4844 0.355447 81.6693 0.836033 82.5973 1.79721C83.5419 2.75838 83.9562 3.91013 83.8402 5.25246C83.7408 6.59479 83.1359 7.74654 82.0256 8.70772C80.9318 9.66889 79.6723 10.1495 78.2472 10.1495ZM100.874 54.5458C97.0626 54.5458 93.9305 53.7089 91.4778 52.0351C89.0252 50.3614 87.31 48.0496 86.3322 45.0998C85.371 42.1334 85.2136 38.7196 85.8599 34.8583C86.4896 30.9804 87.7905 27.5583 89.7626 24.592C91.7512 21.609 94.2536 19.2889 97.2697 17.6317C100.286 15.958 103.658 15.1211 107.387 15.1211C110.486 15.1211 113.129 15.6928 115.317 16.8363C117.521 17.9632 119.161 19.5624 120.238 21.6339C121.332 23.6888 121.755 26.0917 121.506 28.8427H112.881C112.847 27.0032 112.276 25.4703 111.165 24.2439C110.055 23.001 108.431 22.3796 106.293 22.3796C104.437 22.3796 102.73 22.8768 101.172 23.8711C99.6146 24.8488 98.2972 26.2574 97.22 28.0969C96.1428 29.9364 95.3971 32.1405 94.9828 34.7091C94.5519 37.3109 94.5602 39.5482 95.0076 41.4208C95.4717 43.2768 96.3085 44.7103 97.5183 45.7212C98.7446 46.7155 100.294 47.2127 102.167 47.2127C103.492 47.2127 104.727 46.9641 105.871 46.467C107.014 45.9532 108.017 45.2158 108.878 44.2546C109.757 43.2934 110.444 42.1251 110.942 40.7496H119.542C118.863 43.4509 117.653 45.8455 115.913 47.9336C114.19 50.0051 112.052 51.6291 109.5 52.8057C106.948 53.9658 104.073 54.5458 100.874 54.5458ZM134.886 41.8185L136.651 30.9556H138.093L154.424 15.6182H164.939L144.953 34.4108H143.114L134.886 41.8185ZM124.719 53.8L133.171 2.89096H142.169L133.718 53.8H124.719ZM148.682 53.8L139.137 36.4243L146.271 30.0856L159.446 53.8H148.682ZM196.416 23.9954L192.165 25.0891C191.95 23.9456 191.552 22.9182 190.972 22.0067C190.408 21.0787 189.588 20.3495 188.511 19.8192C187.45 19.2723 186.058 18.9989 184.335 18.9989C181.749 18.9989 179.521 19.6286 177.648 20.8881C175.775 22.131 174.682 23.7219 174.367 25.6608C174.102 27.2849 174.441 28.6024 175.386 29.6133C176.347 30.6241 177.954 31.4196 180.208 31.9996L185.776 33.4165C188.859 34.212 191.055 35.4549 192.364 37.1452C193.69 38.8356 194.145 40.9733 193.731 43.5586C193.366 45.7129 192.447 47.6187 190.972 49.2759C189.513 50.9331 187.641 52.234 185.354 53.1786C183.084 54.1232 180.548 54.5955 177.747 54.5955C173.986 54.5955 171.027 53.7503 168.873 52.06C166.735 50.3697 165.592 47.9336 165.443 44.7518L169.892 43.7574C170.025 46.0112 170.795 47.7181 172.204 48.8782C173.629 50.0382 175.634 50.6182 178.22 50.6182C181.169 50.6182 183.647 49.9471 185.652 48.6047C187.657 47.2624 188.809 45.6052 189.107 43.6331C189.389 42.0754 189.099 40.7828 188.237 39.7553C187.392 38.7278 185.95 37.9655 183.912 37.4684L177.971 35.9769C174.773 35.1649 172.511 33.8971 171.185 32.1736C169.876 30.4336 169.436 28.2875 169.867 25.7354C170.215 23.6308 171.094 21.783 172.502 20.1921C173.911 18.6012 175.692 17.3583 177.847 16.4634C180.001 15.5519 182.354 15.0962 184.906 15.0962C188.42 15.0962 191.096 15.8917 192.936 17.4826C194.775 19.0569 195.935 21.2278 196.416 23.9954ZM210.056 29.9364L206.104 53.8H201.679L210.131 2.89096H214.556L211.473 21.609H211.871C213.064 19.6204 214.705 18.046 216.793 16.886C218.881 15.7094 221.375 15.1211 224.275 15.1211C226.844 15.1211 229.015 15.6514 230.788 16.712C232.578 17.7726 233.846 19.3386 234.591 21.4101C235.354 23.4816 235.486 26.0337 234.989 29.0664L230.838 53.8H226.388L230.465 29.3398C230.979 26.1911 230.515 23.7136 229.073 21.9073C227.648 20.0844 225.46 19.1729 222.51 19.1729C220.489 19.1729 218.599 19.6038 216.843 20.4655C215.103 21.3273 213.628 22.5702 212.418 24.1942C211.225 25.8017 210.438 27.7158 210.056 29.9364ZM242.54 53.8L248.903 15.6182H253.353L246.989 53.8H242.54ZM252.731 8.98115C251.803 8.98115 251.016 8.66629 250.37 8.03655C249.74 7.40682 249.434 6.64451 249.45 5.74962C249.483 4.90445 249.823 4.17528 250.469 3.56212C251.132 2.93239 251.911 2.61752 252.806 2.61752C253.734 2.61752 254.521 2.94067 255.167 3.58698C255.814 4.21671 256.12 4.97902 256.087 5.87391C256.071 6.71908 255.731 7.44825 255.068 8.06141C254.405 8.67457 253.626 8.98115 252.731 8.98115ZM256.305 68.1182L265.104 15.6182H269.405L268.212 22.9016H268.734C269.43 21.7581 270.333 20.5815 271.443 19.3718C272.57 18.162 273.97 17.1511 275.644 16.3391C277.335 15.5105 279.356 15.0962 281.71 15.0962C284.858 15.0962 287.468 15.9165 289.54 17.5572C291.628 19.1978 293.086 21.5013 293.915 24.4677C294.76 27.434 294.851 30.881 294.188 34.8086C293.542 38.7527 292.307 42.208 290.484 45.1743C288.661 48.1407 286.433 50.4525 283.798 52.1097C281.179 53.7669 278.312 54.5955 275.197 54.5955C272.893 54.5955 271.029 54.1812 269.604 53.3526C268.195 52.524 267.118 51.5048 266.372 50.2951C265.626 49.0688 265.088 47.8756 264.756 46.7155H264.359L260.779 68.1182H256.305ZM266.298 34.734C265.8 37.8164 265.8 40.5508 266.298 42.9371C266.795 45.3069 267.797 47.1713 269.305 48.5302C270.813 49.8725 272.802 50.5437 275.271 50.5437C277.807 50.5437 280.069 49.8476 282.058 48.4556C284.046 47.047 285.703 45.1495 287.029 42.7631C288.355 40.3768 289.266 37.7004 289.763 34.734C290.228 31.8008 290.211 29.1575 289.714 26.8043C289.217 24.4511 288.222 22.5867 286.731 21.2113C285.239 19.8192 283.209 19.1232 280.641 19.1232C278.155 19.1232 275.918 19.7944 273.929 21.1367C271.957 22.4625 270.316 24.3019 269.007 26.6552C267.698 28.9918 266.795 31.6848 266.298 34.734Z" fill="white"/>
</svg>
